<svg width="20" height="20" viewBox="0 0 20 20" fill="none" xmlns="http://www.w3.org/2000/svg">
<path d="M9.78702 3.88864C9.75127 3.57294 9.48435 3.33431 9.16668 3.33398C8.84893 3.33366 8.58152 3.57175 8.5451 3.88738C8.30842 5.93974 7.69479 7.38291 6.70487 8.37282C5.71494 9.36273 4.27177 9.9764 2.21941 10.2131C1.90378 10.2495 1.66569 10.5169 1.66602 10.8347C1.66634 11.1523 1.90497 11.4192 2.22067 11.455C4.23912 11.6837 5.71296 12.297 6.72639 13.2922C7.73601 14.2835 8.36243 15.7263 8.54343 17.7643C8.5721 18.0871 8.84268 18.3343 9.16668 18.334C9.49077 18.3337 9.76077 18.0857 9.78868 17.7629C9.96218 15.7585 10.588 14.2852 11.6027 13.2707C12.6173 12.256 14.0905 11.6302 16.0949 11.4567C16.4178 11.4287 16.6657 11.1587 16.666 10.8347C16.6663 10.5107 16.4191 10.2401 16.0963 10.2114C14.0583 10.0304 12.6155 9.40398 11.6242 8.39432C10.629 7.38093 10.0157 5.90708 9.78702 3.88864Z"/>
<path d="M16.4908 1.04968C16.4769 0.926909 16.3732 0.83411 16.2496 0.833985C16.126 0.833859 16.022 0.926451 16.0079 1.04919C15.9158 1.84733 15.6772 2.40857 15.2923 2.79353C14.9073 3.17851 14.346 3.41714 13.5478 3.50919C13.4252 3.52335 13.3325 3.62734 13.3327 3.7509C13.3328 3.87446 13.4256 3.97826 13.5483 3.99216C14.3333 4.08108 14.9065 4.31961 15.3006 4.70659C15.6933 5.09213 15.9368 5.65323 16.0073 6.44577C16.0184 6.57128 16.1236 6.66746 16.2496 6.66732C16.3756 6.66718 16.4806 6.57076 16.4915 6.44523C16.559 5.66573 16.8023 5.09281 17.1969 4.69823C17.5915 4.30366 18.1644 4.06028 18.9439 3.9928C19.0694 3.98193 19.1658 3.87693 19.166 3.75093C19.1662 3.62492 19.07 3.5197 18.9444 3.50855C18.1519 3.43815 17.5908 3.19453 17.2053 2.80191C16.8183 2.40779 16.5798 1.83463 16.4908 1.04968Z"/>
</svg>
